<!-- icon666.com - MILLIONS OF FREE VECTOR ICONS --><svg version="1.1" id="Layer_1" xmlns="http://www.w3.org/2000/svg" xmlns:xlink="http://www.w3.org/1999/xlink" x="0px" y="0px" viewBox="0 0 512 512" style="enable-background:new 0 0 512 512;" xml:space="preserve"><g><g><g><path d="M401.067,204.8c-14.114,0-25.6,11.486-25.6,25.6c0,4.48,1.178,8.892,3.405,12.757c2.347,4.079,7.561,5.487,11.657,3.14 c4.079-2.355,5.487-7.569,3.132-11.657c-0.734-1.28-1.126-2.748-1.126-4.241c0-4.702,3.823-8.533,8.533-8.533 s8.533,3.831,8.533,8.533c0,1.527-0.384,2.961-1.143,4.284c-2.355,4.079-0.947,9.301,3.132,11.656 c1.348,0.768,2.816,1.135,4.25,1.135c2.953,0,5.828-1.536,7.407-4.275c2.236-3.883,3.422-8.311,3.422-12.8 C426.667,216.286,415.181,204.8,401.067,204.8z"></path><path d="M162.133,128c9.89,0,17.067-5.385,17.067-12.8s-7.177-12.8-17.067-12.8s-17.067,5.385-17.067,12.8 S152.243,128,162.133,128z"></path><path d="M349.867,128c9.89,0,17.067-5.385,17.067-12.8s-7.177-12.8-17.067-12.8s-17.067,5.385-17.067,12.8 S339.977,128,349.867,128z"></path><path d="M477.867,225.86v-3.994c0-50.116-16.58-97.988-47.044-136.704c26.291-2.125,47.044-24.201,47.044-51.029 c0-9.412-7.654-17.067-17.067-17.067H341.47C314.658,5.845,285.798,0,256,0c-29.79,0-58.65,5.845-85.461,17.067H51.2 c-9.412,0-17.067,7.654-17.067,17.067c0,26.641,20.446,48.589,46.473,50.987c-30.089,38.426-46.473,86.315-46.473,136.747v3.994 c-10.752,21.188-17.067,44.877-17.067,64.273c0,37.965,25.207,62.293,68.267,67.268V384c0,4.71,3.823,8.533,8.533,8.533h51.2 c4.71,0,8.533-3.823,8.533-8.533v-27.11c13.824-0.887,25.438-2.057,36.847-3.2c19.533-1.963,37.99-3.823,65.553-3.823 s46.02,1.86,65.553,3.823c11.409,1.143,23.023,2.313,36.847,3.2V384c0,4.71,3.814,8.533,8.533,8.533h51.2 c4.719,0,8.533-3.823,8.533-8.533v-26.598c43.059-4.975,68.267-29.303,68.267-67.268 C494.933,270.737,488.619,247.049,477.867,225.86z M105.173,82.62c2.321-2.483,2.935-6.11,1.587-9.216 c-1.357-3.123-4.429-5.137-7.825-5.137H85.333c-18.825,0-34.133-15.309-34.133-34.133h86.485 c-5.043,3.191-9.992,6.605-14.822,10.231c-3.763,2.833-4.523,8.183-1.698,11.955c2.833,3.763,8.175,4.514,11.955,1.698 C168.781,31.223,211.277,17.067,256,17.067c27.998,0,55.125,5.555,80.239,16.273c0.111,0.051,0.213,0.102,0.316,0.154 c14.908,6.383,29.107,14.575,42.342,24.533c1.536,1.152,3.336,1.707,5.12,1.707c2.594,0,5.146-1.169,6.835-3.405 c2.825-3.763,2.065-9.114-1.698-11.947c-4.838-3.635-9.788-7.049-14.839-10.249H460.8c0,18.825-15.309,34.133-34.133,34.133 h-14.251c-3.396,0-6.477,2.014-7.825,5.137c-1.357,3.115-0.734,6.741,1.596,9.225c29.67,31.761,47.949,71.919,53.026,114.927 c-13.807-16-30.788-26.888-49.613-26.888c-31.01,0-55.432,6.656-79.044,13.099c-23.569,6.434-45.833,12.501-74.556,12.501 s-50.987-6.067-74.556-12.501c-23.612-6.443-48.034-13.099-79.044-13.099c-18.842,0-35.849,10.914-49.655,26.948 C57.719,154.3,75.793,114.116,105.173,82.62z M136.533,375.467H102.4V358.4c12.979,0,24.09-0.256,34.133-0.657V375.467z M409.6,375.467h-34.133v-17.724c10.044,0.401,21.146,0.657,34.133,0.657V375.467z M409.6,341.333 c-40.38,0-63.744-2.347-86.34-4.625c-19.977-2.005-38.835-3.908-67.26-3.908s-47.283,1.903-67.26,3.908 c-22.596,2.278-45.961,4.625-86.34,4.625c-25.498,0-68.267-6.647-68.267-51.2c0-38.579,31.906-102.4,68.267-102.4 c28.723,0,50.987,6.067,74.556,12.501c23.612,6.443,48.034,13.099,79.044,13.099s55.432-6.656,79.044-13.099 c23.569-6.434,45.833-12.501,74.556-12.501c36.361,0,68.267,63.821,68.267,102.4C477.867,334.686,435.089,341.333,409.6,341.333z "></path><path d="M110.933,204.8c-14.114,0-25.6,11.486-25.6,25.6c0,4.48,1.178,8.892,3.405,12.757c2.355,4.079,7.569,5.487,11.657,3.14 c4.079-2.355,5.487-7.569,3.132-11.657c-0.734-1.28-1.126-2.748-1.126-4.241c0-4.702,3.831-8.533,8.533-8.533 c4.702,0,8.533,3.831,8.533,8.533c0,1.527-0.384,2.961-1.143,4.284c-2.355,4.079-0.947,9.301,3.132,11.656 c1.348,0.768,2.807,1.135,4.25,1.135c2.953,0,5.828-1.536,7.407-4.275c2.236-3.883,3.422-8.311,3.422-12.8 C136.533,216.286,125.048,204.8,110.933,204.8z"></path><path d="M256,392.533c26.01,0,76.083-8.294,78.199-8.653c4.651-0.777,7.791-5.171,7.014-9.822 c-0.768-4.642-5.163-7.782-9.813-7.006c-0.512,0.077-50.807,8.414-75.401,8.414s-74.889-8.337-75.392-8.414 c-4.685-0.768-9.045,2.372-9.822,7.006c-0.777,4.651,2.364,9.045,7.006,9.822C179.917,384.239,229.99,392.533,256,392.533z"></path><path d="M414.336,402.5c-3.942-2.62-9.225-1.553-11.836,2.364c-5.581,8.371-12.254,14.72-20.983,19.396 c-0.768,0.239-1.451,0.589-2.108,1.024c-14.464,7.049-34.33,9.916-63.676,9.916c-4.719,0-8.533,3.823-8.533,8.533 s3.814,8.533,8.533,8.533c25.088,0,44.373-2.159,59.733-7.074v28.885c-5.043-2.935-10.829-4.745-17.067-4.745 c-10.24,0-19.345,4.634-25.6,11.793c-6.255-7.159-15.36-11.793-25.6-11.793c-6.238,0-12.023,1.809-17.067,4.745V448 c0-2.526-1.135-4.932-3.072-6.554c-1.954-1.621-4.531-2.304-7.014-1.835c-0.077,0.017-8.201,1.451-24.047,1.451 c-15.846,0-23.97-1.434-24.03-1.451c-2.475-0.461-5.06,0.196-7.023,1.818c-1.954,1.621-3.081,4.036-3.081,6.571v26.086 c-5.043-2.944-10.82-4.753-17.067-4.753c-10.24,0-19.337,4.634-25.6,11.793c-6.263-7.159-15.36-11.793-25.6-11.793 c-6.246,0-12.023,1.809-17.067,4.753v-28.894c15.36,4.915,34.645,7.074,59.733,7.074c4.71,0,8.533-3.823,8.533-8.533 s-3.823-8.533-8.533-8.533c-49.126,0-71.834-7.936-86.767-30.336c-2.62-3.917-7.919-4.983-11.836-2.364 c-3.917,2.611-4.975,7.91-2.364,11.836c6.605,9.907,14.396,17.553,24.166,23.33v65.8c0,4.71,3.823,8.533,8.533,8.533h102.4 c4.71,0,8.533-3.823,8.533-8.533V457.54c4.318,0.324,10.01,0.589,17.067,0.589c7.057,0,12.749-0.265,17.067-0.589v45.926 c0,4.71,3.814,8.533,8.533,8.533H384c4.719,0,8.533-3.823,8.533-8.533v-65.8c9.771-5.777,17.562-13.423,24.166-23.33 C419.319,410.411,418.261,405.111,414.336,402.5z M138.906,494.933c2.961-5.077,8.405-8.533,14.694-8.533 s11.733,3.456,14.694,8.533H138.906z M190.106,494.933c2.961-5.077,8.405-8.533,14.694-8.533s11.733,3.456,14.694,8.533H190.106z M292.506,494.933c2.961-5.077,8.414-8.533,14.694-8.533s11.733,3.456,14.694,8.533H292.506z M343.706,494.933 c2.961-5.077,8.414-8.533,14.694-8.533c6.281,0,11.733,3.456,14.694,8.533H343.706z"></path></g></g></g></svg>